<?xml version="1.0" encoding="utf-8"?>
<!-- Generator: Adobe Illustrator 17.1.0, SVG Export Plug-In . SVG Version: 6.00 Build 0)  -->
<!DOCTYPE svg PUBLIC "-//W3C//DTD SVG 1.1//EN" "http://www.w3.org/Graphics/SVG/1.1/DTD/svg11.dtd">
<svg version="1.1" id="Layer_1" xmlns="http://www.w3.org/2000/svg" xmlns:xlink="http://www.w3.org/1999/xlink" x="0px" y="0px"
	 viewBox="0 0 69.4 69.4" enable-background="new 0 0 69.4 69.4" xml:space="preserve">
<g>
	<path fill="#3B0000" d="M69.4,21.4c0,8.8,0,17.6,0,26.4c-6.8,0-13.5,0.1-20.3,0.1c-1,0-1.3,0.3-1.3,1.3c0,6.8,0,13.5-0.1,20.3
		c-8.8,0-17.6,0-26.4,0c0-7.1,0-14.2,0-21.4c-0.4,0-0.8-0.1-1.1-0.1c-6.4,0-12.7,0-19.1,0c-0.4,0-0.8,0.1-1.2,0.2
		c0-8.9,0-17.8,0-26.6c7.1,0,14.2,0,21.4,0c0-7.2,0-14.3,0-21.4C30.2,0,39.1,0,48,0c-0.1,0.4-0.2,0.8-0.2,1.2c0,6.3,0,12.6,0,18.9
		c0,0.4,0.1,0.8,0.1,1.2C55.1,21.4,62.3,21.4,69.4,21.4z"/>
</g>
</svg>