<?xml version="1.0" encoding="utf-8"?>
<!-- Generator: Adobe Illustrator 17.1.0, SVG Export Plug-In . SVG Version: 6.00 Build 0)  -->
<!DOCTYPE svg PUBLIC "-//W3C//DTD SVG 1.1//EN" "http://www.w3.org/Graphics/SVG/1.1/DTD/svg11.dtd">
<svg version="1.1" id="Layer_1" xmlns="http://www.w3.org/2000/svg" xmlns:xlink="http://www.w3.org/1999/xlink" x="0px" y="0px"
	 viewBox="0 0 134.2 132.7" enable-background="new 0 0 134.2 132.7" xml:space="preserve">
<g>
	<path fill="#3B0000" d="M134.4,51.4c0,10.2,0,20.3,0,30.5c-5.4,0-10.7,0.1-16.1,0.1c-1.2,0-2,0.4-2.4,1.6c-0.7,2.1-1.6,4.2-2.5,6.2
		c-0.3,0.7-0.2,1.1,0.3,1.6c2.7,2.6,5.3,5.3,8,8c1,0.9,2,1.8,2.9,2.7c-7.7,7.7-15.2,15.2-22.8,22.8c-0.1-0.1-0.3-0.3-0.5-0.5
		c-3.5-3.5-7-7-10.5-10.6c-0.6-0.6-1-0.7-1.8-0.4c-1.4,0.6-2.8,1.2-4.2,1.7c-1.1,0.4-1.6,1-1.6,2.3c0.1,5.2,0,10.5,0,15.7
		c-10.7,0-21.4,0-32.2,0c0.1-5.4,0.1-10.8,0.2-16.2c0-0.9-0.4-1.3-1.1-1.6c-1.1-0.4-2.2-0.9-3.3-1.4c-1.1-0.4-2.3-1.3-3.2-1.1
		c-1,0.2-1.8,1.5-2.6,2.3c-3.2,3.2-6.5,6.4-9.6,9.4c-7.1-7.1-14.3-14.3-21.7-21.7c0.2-0.2,0.6-0.4,0.9-0.7c3.3-3.2,6.5-6.5,9.8-9.6
		c1-1,1.1-1.7,0.6-3c-0.9-1.9-1.7-4-2.4-6c-0.4-1.2-1.2-1.6-2.4-1.6c-4.9,0.1-9.8,0.1-14.6,0.1c-0.5,0-0.9,0.1-1.4,0.2
		c0-10.3,0-20.6,0-31c0.2,0.1,0.5,0.2,0.7,0.2c5.3,0,10.6,0,15.9,0c0.9,0,1.3-0.5,1.6-1.2c0.8-2,1.6-3.9,2.5-5.8
		c0.5-1.1,0.4-1.8-0.5-2.6c-3.6-3.5-7.2-7.1-10.9-10.8c7.7-7.6,15.3-15,23-22.7c0.1,0.2,0.3,0.6,0.7,0.9c3.5,3.5,7,7,10.5,10.5
		c0.5,0.5,1,0.7,1.7,0.4c1.4-0.6,2.8-1.2,4.2-1.7c1.3-0.4,1.8-1.1,1.7-2.5c-0.1-4.7-0.1-9.4-0.1-14.1c0-0.5-0.1-0.9-0.2-1.4
		c10.7,0,21.4,0,32.2,0c0,5.3,0,10.6,0,15.8c0,1.2,0.4,1.7,1.5,2.1c1.6,0.6,3.1,1.2,4.6,1.9c1.1,0.5,1.8,0.3,2.6-0.5
		c3.4-3.5,6.8-6.9,10.2-10.3c0.3-0.3,0.6-0.6,0.9-0.8c7.3,7.3,14.5,14.5,21.7,21.7c-0.4,0.3-0.9,0.7-1.3,1.1
		c-3.3,3.3-6.5,6.6-9.9,9.8c-0.8,0.8-0.8,1.4-0.4,2.3c0.9,2,1.8,4,2.6,6c0.7,1.8,0.8,1.8,2.7,1.8C123.8,51.3,129.1,51.4,134.4,51.4z
		 M41.5,66.9c0,13.6,11.7,25.4,25.2,25.5C81.4,92.5,92.9,81,93.1,66.6c0.2-14.1-11.6-25.8-25.6-25.8C53,40.8,41.5,52.4,41.5,66.9z"
		/>
</g>
</svg>
